<?xml version="1.0" encoding="UTF-8" standalone="no"?>
<!DOCTYPE svg PUBLIC "-//W3C//DTD SVG 1.1//EN"
 "http://www.w3.org/Graphics/SVG/1.1/DTD/svg11.dtd">
<!-- Generated by graphviz version 2.38.0 (20140413.2041)
 -->
<!-- Title: 123 Pages: 1 -->
<svg width="731pt" height="865pt"
 viewBox="0.00 0.00 731.00 865.00" xmlns="http://www.w3.org/2000/svg" xmlns:xlink="http://www.w3.org/1999/xlink">
<g id="graph0" class="graph" transform="scale(1 1) rotate(0) translate(4 861)">
<title>123</title>
<polygon fill="white" stroke="none" points="-4,4 -4,-861 727,-861 727,4 -4,4"/>
<!-- 12033440 -->
<g id="node1" class="node"><title>12033440</title>
<polygon fill="none" stroke="black" points="227,-299 0,-299 0,-186 227,-186 227,-299"/>
<text text-anchor="start" x="8" y="-283.8" font-family="Times,serif" font-size="14.00">this: 0xb79da0</text>
<text text-anchor="start" x="8" y="-268.8" font-family="Times,serif" font-size="14.00">larger: [0xb79f40, 0xb7a440]</text>
<text text-anchor="start" x="8" y="-253.8" font-family="Times,serif" font-size="14.00">deriving_chains: [0xb79f40]</text>
<text text-anchor="start" x="8" y="-238.8" font-family="Times,serif" font-size="14.00">size: 1</text>
<text text-anchor="start" x="8" y="-223.8" font-family="Times,serif" font-size="14.00">smaller: lower_chain: 0x7ffd60327a20</text>
<text text-anchor="start" x="8" y="-208.8" font-family="Times,serif" font-size="14.00">introduced here: {3}</text>
<text text-anchor="start" x="8" y="-193.8" font-family="Times,serif" font-size="14.00">[0x7ffd60327a20]</text>
</g>
<!-- 12033856 -->
<g id="node4" class="node"><title>12033856</title>
<polygon fill="none" stroke="black" points="209,-485 18,-485 18,-372 209,-372 209,-485"/>
<text text-anchor="start" x="26" y="-469.8" font-family="Times,serif" font-size="14.00">this: 0xb79f40</text>
<text text-anchor="start" x="26" y="-454.8" font-family="Times,serif" font-size="14.00">larger: [0x7ffd60327990]</text>
<text text-anchor="start" x="26" y="-439.8" font-family="Times,serif" font-size="14.00">deriving_chains: []</text>
<text text-anchor="start" x="26" y="-424.8" font-family="Times,serif" font-size="14.00">size: 2</text>
<text text-anchor="start" x="26" y="-409.8" font-family="Times,serif" font-size="14.00">smaller: lower_chain: 0xb79da0</text>
<text text-anchor="start" x="26" y="-394.8" font-family="Times,serif" font-size="14.00">introduced here: {2}</text>
<text text-anchor="start" x="26" y="-379.8" font-family="Times,serif" font-size="14.00">[0xb79da0]</text>
</g>
<!-- 12033440&#45;&gt;12033856 -->
<g id="edge1" class="edge"><title>12033440&#45;&gt;12033856</title>
<path fill="none" stroke="black" d="M106.997,-309.409C106.667,-326.378 106.668,-344.639 106.998,-361.608"/>
<polygon fill="black" stroke="black" points="110.501,-309.286 107.24,-299.205 103.503,-309.119 110.501,-309.286"/>
<polygon fill="black" stroke="black" points="103.508,-362.071 107.246,-371.984 110.506,-361.903 103.508,-362.071"/>
</g>
<!-- 12033440&#45;&gt;12033856 -->
<g id="edge3" class="edge"><title>12033440&#45;&gt;12033856</title>
<path fill="none" stroke="red" d="M120.003,-309.409C120.333,-326.378 120.332,-344.639 120.002,-361.608"/>
<polygon fill="red" stroke="red" points="123.497,-309.119 119.76,-299.205 116.499,-309.286 123.497,-309.119"/>
<polygon fill="red" stroke="red" points="116.494,-361.903 119.754,-371.984 123.492,-362.071 116.494,-361.903"/>
</g>
<!-- 12035136 -->
<g id="node5" class="node"><title>12035136</title>
<polygon fill="none" stroke="black" points="418,-485 227,-485 227,-372 418,-372 418,-485"/>
<text text-anchor="start" x="235" y="-469.8" font-family="Times,serif" font-size="14.00">this: 0xb7a440</text>
<text text-anchor="start" x="235" y="-454.8" font-family="Times,serif" font-size="14.00">larger: [0x7ffd60327990]</text>
<text text-anchor="start" x="235" y="-439.8" font-family="Times,serif" font-size="14.00">deriving_chains: []</text>
<text text-anchor="start" x="235" y="-424.8" font-family="Times,serif" font-size="14.00">size: 2</text>
<text text-anchor="start" x="235" y="-409.8" font-family="Times,serif" font-size="14.00">smaller: lower_chain: 0xb7a700</text>
<text text-anchor="start" x="235" y="-394.8" font-family="Times,serif" font-size="14.00">introduced here: {3}</text>
<text text-anchor="start" x="235" y="-379.8" font-family="Times,serif" font-size="14.00">[0xb79da0, 0xb7a700]</text>
</g>
<!-- 12033440&#45;&gt;12035136 -->
<g id="edge2" class="edge"><title>12033440&#45;&gt;12035136</title>
<path fill="none" stroke="black" d="M184.557,-306.058C206.284,-325.185 230.166,-346.211 251.864,-365.314"/>
<polygon fill="black" stroke="black" points="186.593,-303.186 176.774,-299.205 181.967,-308.44 186.593,-303.186"/>
<polygon fill="black" stroke="black" points="249.622,-368.003 259.441,-371.984 254.248,-362.749 249.622,-368.003"/>
</g>
<!-- 12034272 -->
<g id="node2" class="node"><title>12034272</title>
<polygon fill="none" stroke="black" points="723,-299 496,-299 496,-186 723,-186 723,-299"/>
<text text-anchor="start" x="504" y="-283.8" font-family="Times,serif" font-size="14.00">this: 0xb7a0e0</text>
<text text-anchor="start" x="504" y="-268.8" font-family="Times,serif" font-size="14.00">larger: [0xb7a590]</text>
<text text-anchor="start" x="504" y="-253.8" font-family="Times,serif" font-size="14.00">deriving_chains: [0xb7a590]</text>
<text text-anchor="start" x="504" y="-238.8" font-family="Times,serif" font-size="14.00">size: 1</text>
<text text-anchor="start" x="504" y="-223.8" font-family="Times,serif" font-size="14.00">smaller: lower_chain: 0x7ffd60327a20</text>
<text text-anchor="start" x="504" y="-208.8" font-family="Times,serif" font-size="14.00">introduced here: {1}</text>
<text text-anchor="start" x="504" y="-193.8" font-family="Times,serif" font-size="14.00">[0x7ffd60327a20]</text>
</g>
<!-- 12035472 -->
<g id="node6" class="node"><title>12035472</title>
<polygon fill="none" stroke="black" points="705,-485 514,-485 514,-372 705,-372 705,-485"/>
<text text-anchor="start" x="522" y="-469.8" font-family="Times,serif" font-size="14.00">this: 0xb7a590</text>
<text text-anchor="start" x="522" y="-454.8" font-family="Times,serif" font-size="14.00">larger: [0xb7a250]</text>
<text text-anchor="start" x="522" y="-439.8" font-family="Times,serif" font-size="14.00">deriving_chains: []</text>
<text text-anchor="start" x="522" y="-424.8" font-family="Times,serif" font-size="14.00">size: 2</text>
<text text-anchor="start" x="522" y="-409.8" font-family="Times,serif" font-size="14.00">smaller: lower_chain: 0xb7a0e0</text>
<text text-anchor="start" x="522" y="-394.8" font-family="Times,serif" font-size="14.00">introduced here: {2}</text>
<text text-anchor="start" x="522" y="-379.8" font-family="Times,serif" font-size="14.00">[0xb7a0e0]</text>
</g>
<!-- 12034272&#45;&gt;12035472 -->
<g id="edge5" class="edge"><title>12034272&#45;&gt;12035472</title>
<path fill="none" stroke="black" d="M602.997,-309.409C602.667,-326.378 602.668,-344.639 602.998,-361.608"/>
<polygon fill="black" stroke="black" points="606.501,-309.286 603.24,-299.205 599.503,-309.119 606.501,-309.286"/>
<polygon fill="black" stroke="black" points="599.508,-362.071 603.246,-371.984 606.506,-361.903 599.508,-362.071"/>
</g>
<!-- 12034272&#45;&gt;12035472 -->
<g id="edge6" class="edge"><title>12034272&#45;&gt;12035472</title>
<path fill="none" stroke="red" d="M616.003,-309.409C616.333,-326.378 616.332,-344.639 616.002,-361.608"/>
<polygon fill="red" stroke="red" points="619.497,-309.119 615.76,-299.205 612.499,-309.286 619.497,-309.119"/>
<polygon fill="red" stroke="red" points="612.494,-361.903 615.754,-371.984 619.492,-362.071 612.494,-361.903"/>
</g>
<!-- 12035840 -->
<g id="node3" class="node"><title>12035840</title>
<polygon fill="none" stroke="black" points="478,-299 245,-299 245,-186 478,-186 478,-299"/>
<text text-anchor="start" x="253" y="-283.8" font-family="Times,serif" font-size="14.00">this: 0xb7a700</text>
<text text-anchor="start" x="253" y="-268.8" font-family="Times,serif" font-size="14.00">larger: [0xb7a250, 0xb7a440]</text>
<text text-anchor="start" x="253" y="-253.8" font-family="Times,serif" font-size="14.00">deriving_chains: [0xb7a250, 0xb7a440]</text>
<text text-anchor="start" x="253" y="-238.8" font-family="Times,serif" font-size="14.00">size: 1</text>
<text text-anchor="start" x="253" y="-223.8" font-family="Times,serif" font-size="14.00">smaller: lower_chain: 0x7ffd60327a20</text>
<text text-anchor="start" x="253" y="-208.8" font-family="Times,serif" font-size="14.00">introduced here: {0}</text>
<text text-anchor="start" x="253" y="-193.8" font-family="Times,serif" font-size="14.00">[0x7ffd60327a20]</text>
</g>
<!-- 12035840&#45;&gt;12035136 -->
<g id="edge11" class="edge"><title>12035840&#45;&gt;12035136</title>
<path fill="none" stroke="black" d="M341.093,-309.128C337.11,-326.322 333.182,-344.858 329.88,-362.042"/>
<polygon fill="black" stroke="black" points="344.544,-309.742 343.433,-299.205 337.731,-308.135 344.544,-309.742"/>
<polygon fill="black" stroke="black" points="326.419,-361.51 328.013,-371.984 333.299,-362.802 326.419,-361.51"/>
</g>
<!-- 12035840&#45;&gt;12035136 -->
<g id="edge13" class="edge"><title>12035840&#45;&gt;12035136</title>
<path fill="none" stroke="red" d="M354.087,-309.128C350.781,-326.322 346.851,-344.858 342.868,-362.042"/>
<polygon fill="red" stroke="red" points="357.544,-309.68 355.953,-299.205 350.665,-308.386 357.544,-309.68"/>
<polygon fill="red" stroke="red" points="339.412,-361.447 340.521,-371.984 346.225,-363.056 339.412,-361.447"/>
</g>
<!-- 12034640 -->
<g id="node9" class="node"><title>12034640</title>
<polygon fill="none" stroke="black" points="551,-671 360,-671 360,-558 551,-558 551,-671"/>
<text text-anchor="start" x="368" y="-655.8" font-family="Times,serif" font-size="14.00">this: 0xb7a250</text>
<text text-anchor="start" x="368" y="-640.8" font-family="Times,serif" font-size="14.00">larger: [0x7ffd60327990]</text>
<text text-anchor="start" x="368" y="-625.8" font-family="Times,serif" font-size="14.00">deriving_chains: []</text>
<text text-anchor="start" x="368" y="-610.8" font-family="Times,serif" font-size="14.00">size: 3</text>
<text text-anchor="start" x="368" y="-595.8" font-family="Times,serif" font-size="14.00">smaller: lower_chain: 0xb7a700</text>
<text text-anchor="start" x="368" y="-580.8" font-family="Times,serif" font-size="14.00">introduced here: {1, 2}</text>
<text text-anchor="start" x="368" y="-565.8" font-family="Times,serif" font-size="14.00">[0xb7a590, 0xb7a700]</text>
</g>
<!-- 12035840&#45;&gt;12034640 -->
<g id="edge10" class="edge"><title>12035840&#45;&gt;12034640</title>
<path fill="none" stroke="black" d="M391.155,-308.231C400.971,-328.096 410.968,-350.419 417.5,-372 434.974,-429.732 441.977,-498.225 446.317,-547.496"/>
<polygon fill="black" stroke="black" points="394.282,-306.659 386.671,-299.289 388.025,-309.797 394.282,-306.659"/>
<polygon fill="black" stroke="black" points="442.851,-548.049 447.205,-557.708 449.825,-547.442 442.851,-548.049"/>
</g>
<!-- 12035840&#45;&gt;12034640 -->
<g id="edge12" class="edge"><title>12035840&#45;&gt;12034640</title>
<path fill="none" stroke="red" d="M408.368,-308.231C418.971,-328.096 428.968,-350.419 435.5,-372 452.974,-429.732 459.977,-498.225 461.19,-547.496"/>
<polygon fill="red" stroke="red" points="411.341,-306.374 403.464,-299.289 405.204,-309.74 411.341,-306.374"/>
<polygon fill="red" stroke="red" points="457.694,-547.768 461.362,-557.708 464.693,-547.65 457.694,-547.768"/>
</g>
<!-- 140726217374096 -->
<g id="node7" class="node"><title>140726217374096</title>
<polygon fill="cyan" stroke="black" points="420.5,-857 224.5,-857 224.5,-744 420.5,-744 420.5,-857"/>
<text text-anchor="start" x="232.5" y="-841.8" font-family="Times,serif" font-size="14.00">this: 0x7ffd60327990</text>
<text text-anchor="start" x="232.5" y="-826.8" font-family="Times,serif" font-size="14.00">larger: []</text>
<text text-anchor="start" x="232.5" y="-811.8" font-family="Times,serif" font-size="14.00">deriving_chains: []</text>
<text text-anchor="start" x="232.5" y="-796.8" font-family="Times,serif" font-size="14.00">size: 18446744073709551615</text>
<text text-anchor="start" x="232.5" y="-781.8" font-family="Times,serif" font-size="14.00">smaller: lower_chain: 0</text>
<text text-anchor="start" x="232.5" y="-766.8" font-family="Times,serif" font-size="14.00">introduced here: {}</text>
<text text-anchor="start" x="232.5" y="-751.8" font-family="Times,serif" font-size="14.00">[0xb79f40, 0xb7a250, 0xb7a440]</text>
</g>
<!-- 12033856&#45;&gt;140726217374096 -->
<g id="edge4" class="edge"><title>12033856&#45;&gt;140726217374096</title>
<path fill="none" stroke="black" d="M150.007,-494.129C188.221,-561.78 247.871,-667.382 286.06,-734.989"/>
<polygon fill="black" stroke="black" points="152.981,-492.279 145.016,-485.293 146.887,-495.722 152.981,-492.279"/>
<polygon fill="black" stroke="black" points="283.104,-736.873 291.07,-743.859 289.199,-733.43 283.104,-736.873"/>
</g>
<!-- 12035136&#45;&gt;140726217374096 -->
<g id="edge8" class="edge"><title>12035136&#45;&gt;140726217374096</title>
<path fill="none" stroke="black" d="M322.5,-495.43C322.5,-562.731 322.5,-666.591 322.5,-733.807"/>
<polygon fill="black" stroke="black" points="326,-495.293 322.5,-485.293 319,-495.293 326,-495.293"/>
<polygon fill="black" stroke="black" points="319,-733.859 322.5,-743.859 326,-733.859 319,-733.859"/>
</g>
<!-- 12035472&#45;&gt;12034640 -->
<g id="edge9" class="edge"><title>12035472&#45;&gt;12034640</title>
<path fill="none" stroke="black" d="M556.444,-492.892C540.944,-511.411 524.006,-531.648 508.51,-550.164"/>
<polygon fill="black" stroke="black" points="559.143,-495.12 562.877,-485.205 553.775,-490.628 559.143,-495.12"/>
<polygon fill="black" stroke="black" points="505.699,-548.069 501.965,-557.984 511.067,-552.562 505.699,-548.069"/>
</g>
<!-- 140726217374240 -->
<g id="node8" class="node"><title>140726217374240</title>
<polygon fill="#85ffaf" stroke="black" points="507,-113 216,-113 216,-0 507,-0 507,-113"/>
<text text-anchor="start" x="224" y="-97.8" font-family="Times,serif" font-size="14.00">this: 0x7ffd60327a20</text>
<text text-anchor="start" x="224" y="-82.8" font-family="Times,serif" font-size="14.00">larger: [0xb79da0, 0xb7a0e0, 0xb7a700]</text>
<text text-anchor="start" x="224" y="-67.8" font-family="Times,serif" font-size="14.00">deriving_chains: [0xb79da0, 0xb7a0e0, 0xb7a700]</text>
<text text-anchor="start" x="224" y="-52.8" font-family="Times,serif" font-size="14.00">size: 0</text>
<text text-anchor="start" x="224" y="-37.8" font-family="Times,serif" font-size="14.00">smaller: lower_chain: 0</text>
<text text-anchor="start" x="224" y="-22.8" font-family="Times,serif" font-size="14.00">introduced here: {}</text>
<text text-anchor="start" x="224" y="-7.8" font-family="Times,serif" font-size="14.00">[]</text>
</g>
<!-- 140726217374240&#45;&gt;12033440 -->
<g id="edge14" class="edge"><title>140726217374240&#45;&gt;12033440</title>
<path fill="none" stroke="black" d="M271.89,-119.226C245.176,-138.714 216.16,-160.242 190.337,-179.732"/>
<polygon fill="black" stroke="black" points="274.135,-121.921 280.159,-113.205 270.015,-116.262 274.135,-121.921"/>
<polygon fill="black" stroke="black" points="187.936,-177.16 182.072,-185.984 192.159,-182.743 187.936,-177.16"/>
</g>
<!-- 140726217374240&#45;&gt;12033440 -->
<g id="edge17" class="edge"><title>140726217374240&#45;&gt;12033440</title>
<path fill="none" stroke="red" d="M284.351,-119.503C258.501,-139.011 229.481,-160.539 202.785,-180.011"/>
<polygon fill="red" stroke="red" points="286.814,-122.029 292.678,-113.205 282.591,-116.446 286.814,-122.029"/>
<polygon fill="red" stroke="red" points="200.605,-177.269 194.58,-185.984 204.725,-182.928 200.605,-177.269"/>
</g>
<!-- 140726217374240&#45;&gt;12034272 -->
<g id="edge15" class="edge"><title>140726217374240&#45;&gt;12034272</title>
<path fill="none" stroke="black" d="M438.649,-119.503C464.499,-139.011 493.519,-160.539 520.215,-180.011"/>
<polygon fill="black" stroke="black" points="440.409,-116.446 430.322,-113.205 436.186,-122.029 440.409,-116.446"/>
<polygon fill="black" stroke="black" points="518.275,-182.928 528.42,-185.984 522.395,-177.269 518.275,-182.928"/>
</g>
<!-- 140726217374240&#45;&gt;12034272 -->
<g id="edge18" class="edge"><title>140726217374240&#45;&gt;12034272</title>
<path fill="none" stroke="red" d="M451.11,-119.226C477.824,-138.714 506.84,-160.242 532.663,-179.732"/>
<polygon fill="red" stroke="red" points="452.985,-116.262 442.841,-113.205 448.865,-121.921 452.985,-116.262"/>
<polygon fill="red" stroke="red" points="530.841,-182.743 540.928,-185.984 535.064,-177.16 530.841,-182.743"/>
</g>
<!-- 140726217374240&#45;&gt;12035840 -->
<g id="edge16" class="edge"><title>140726217374240&#45;&gt;12035840</title>
<path fill="none" stroke="black" d="M354.997,-123.409C354.667,-140.378 354.668,-158.639 354.998,-175.608"/>
<polygon fill="black" stroke="black" points="358.501,-123.286 355.24,-113.205 351.503,-123.119 358.501,-123.286"/>
<polygon fill="black" stroke="black" points="351.508,-176.071 355.246,-185.984 358.506,-175.903 351.508,-176.071"/>
</g>
<!-- 140726217374240&#45;&gt;12035840 -->
<g id="edge19" class="edge"><title>140726217374240&#45;&gt;12035840</title>
<path fill="none" stroke="red" d="M368.003,-123.409C368.333,-140.378 368.332,-158.639 368.002,-175.608"/>
<polygon fill="red" stroke="red" points="371.497,-123.119 367.76,-113.205 364.499,-123.286 371.497,-123.119"/>
<polygon fill="red" stroke="red" points="364.494,-175.903 367.754,-185.984 371.492,-176.071 364.494,-175.903"/>
</g>
<!-- 12034640&#45;&gt;140726217374096 -->
<g id="edge7" class="edge"><title>12034640&#45;&gt;140726217374096</title>
<path fill="none" stroke="black" d="M409.276,-679.449C396.101,-697.676 381.753,-717.527 368.586,-735.742"/>
<polygon fill="black" stroke="black" points="412.213,-681.36 415.235,-671.205 406.54,-677.26 412.213,-681.36"/>
<polygon fill="black" stroke="black" points="365.65,-733.829 362.628,-743.984 371.323,-737.93 365.65,-733.829"/>
</g>
</g>
</svg>
